<svg xmlns="http://www.w3.org/2000/svg" viewBox="0 0 127.41 109.53"><defs><style>.cls-1{fill:#5e758d;}</style></defs><title>carrito</title><g id="Layer_2" data-name="Layer 2"><g id="diseño"><path class="cls-1" d="M123.26,13.11H24.72L23.13,3.48A4.16,4.16,0,0,0,19,0H4.15a4.16,4.16,0,0,0,0,8.31H15.51L26,71.53A4.16,4.16,0,0,0,30.06,75H114.4a4.15,4.15,0,0,0,4.09-3.48l8.87-53.59A4.16,4.16,0,0,0,123.26,13.11ZM110.87,66.7H33.59L26.1,21.42h92.26Z"/><path class="cls-1" d="M52.85,80.55A14.49,14.49,0,1,0,67.34,95,14.5,14.5,0,0,0,52.85,80.55Zm0,20.67A6.18,6.18,0,1,1,59,95,6.18,6.18,0,0,1,52.85,101.22Z"/><path class="cls-1" d="M92.09,80.55A14.49,14.49,0,1,0,106.57,95,14.51,14.51,0,0,0,92.09,80.55Zm0,20.67A6.18,6.18,0,1,1,98.26,95,6.18,6.18,0,0,1,92.09,101.22Z"/></g></g></svg>