<svg xmlns="http://www.w3.org/2000/svg" viewBox="0 0 28.9 28.9"><defs><style>.cls-1{fill:#5e758d;}</style></defs><title>instagram</title><g id="Layer_2" data-name="Layer 2"><g id="diseño"><path class="cls-1" d="M21.61,0H7.29A7.3,7.3,0,0,0,0,7.29V21.61A7.3,7.3,0,0,0,7.29,28.9H21.61a7.3,7.3,0,0,0,7.29-7.29V7.29A7.3,7.3,0,0,0,21.61,0Zm4.15,21.61a4.15,4.15,0,0,1-4.15,4.15H7.29a4.15,4.15,0,0,1-4.14-4.15V7.29A4.15,4.15,0,0,1,7.29,3.15H21.61a4.15,4.15,0,0,1,4.15,4.14Z"/><path class="cls-1" d="M22.13,8.55a1.77,1.77,0,1,1,1.76-1.76A1.76,1.76,0,0,1,22.13,8.55Z"/><path class="cls-1" d="M14.45,7a7.44,7.44,0,1,0,7.44,7.44A7.45,7.45,0,0,0,14.45,7Zm0,11.74a4.3,4.3,0,1,1,4.3-4.3A4.31,4.31,0,0,1,14.45,18.75Z"/></g></g></svg>