<svg xmlns="http://www.w3.org/2000/svg" xmlns:xlink="http://www.w3.org/1999/xlink" viewBox="0 0 122.46 120.28"><defs><style>.cls-1{fill:url(#linear-gradient);}</style><linearGradient id="linear-gradient" x1="61.23" y1="120.28" x2="61.23" gradientUnits="userSpaceOnUse"><stop offset="0" stop-color="#46586b"/><stop offset="1" stop-color="#5e758d"/></linearGradient></defs><title>logoweb</title><g id="Layer_2" data-name="Layer 2"><g id="diseño"><path class="cls-1" d="M122.46,77.58c0,1.43-2.62,2.06-4,2.07s-1.47-.51-1.47-.83a44.13,44.13,0,0,0-.27-4.68A40.21,40.21,0,0,0,98.32,45a38.55,38.55,0,0,0-16.74-5.71,35.85,35.85,0,0,0-8.81.21,30.6,30.6,0,0,0-3.43.69c.37,1,.74,2,1.12,2.94.93,2.42,1.85,4.84,2.78,7.25s1.8,4.73,2.7,7.08,1.7,4.48,2.56,6.72c.78,2,1.58,4.11,2.36,6.17L83,75.8c.57,1.52,1.16,3,1.73,4.56L86,83.84c.28.75.57,1.5.85,2.24.1.26.21.53.31.8C89.48,93,91,97.09,91.29,97.75c1.65,4,9.89,5.6,11.2,5.6.83,1.15.5,4.28.33,4.78-6.58-.34-10.86-.83-18.11-.83-7.58,0-11.53.49-19.11.83-.82-.83-.65-4,.17-4.78,2,0,7.74-.82,9.22-2.14a3.26,3.26,0,0,0,.66-2.31C75.65,96.5,67,69,59.21,44.62a39.63,39.63,0,0,0,18.17,72.57c1.18.09,2.8-.18,3.9.26a.94.94,0,0,1,.63.8,1.17,1.17,0,0,1-.45.8c-2,1.87-5.91,1.13-8.38.86a42.15,42.15,0,0,1-21-8.45,41,41,0,0,1-15.46-40.3H30.19c-2.83,7.56-5.14,13.78-6,16.13A35.63,35.63,0,0,0,22,98.81c0,3.51,8,4.39,10.58,4.53.35.29.58.49.91.79a12.94,12.94,0,0,1,.19,3,1,1,0,0,1-1.07.92c-5.8-.31-8-.76-14.83-.76-7.21,0-9.73.45-16.61.78a1,1,0,0,1-1-.87,11,11,0,0,1,.08-3,1,1,0,0,1,.9-.81c2.43-.18,7.59-1.16,9-3.06,3.25-4.22,5.36-9.42,7.63-15.26,0,0,13.87-35.64,24.48-62.8a1,1,0,0,1,1.87,0c.72,2.06,1.37,4.13,1.91,6.29a1,1,0,0,1,0,.6c-1,2.61-8.37,22.23-14.33,38.17h5.92a40.83,40.83,0,0,1,1.63-4.66A43.26,43.26,0,0,1,58.32,41.85C52.28,23,47,6.77,47,6.73a.61.61,0,0,1,0-.6A55.93,55.93,0,0,1,51.13.44a2.1,2.1,0,0,1,3,.47c1.33,3.2,12.65,32.58,13.55,34.94l.75,1.95a43.8,43.8,0,0,1,37.29,6.66A41.59,41.59,0,0,1,122.46,77.58Z"/></g></g></svg>