<svg xmlns="http://www.w3.org/2000/svg" xmlns:xlink="http://www.w3.org/1999/xlink" viewBox="0 0 296.26 177.63"><defs><style>.cls-1{fill:#5e748d;}.cls-2{fill:url(#linear-gradient);}</style><linearGradient id="linear-gradient" x1="153.13" y1="120.28" x2="153.13" gradientUnits="userSpaceOnUse"><stop offset="0" stop-color="#46586b"/><stop offset="1" stop-color="#5e758d"/></linearGradient></defs><title>logopc</title><g id="Layer_2" data-name="Layer 2"><g id="Layer_1-2" data-name="Layer 1"><path class="cls-1" d="M.05,151.47a2.33,2.33,0,0,0,1.32-.41,8.3,8.3,0,0,0,1-2s2.91-7.36,4.26-10.74a1.64,1.64,0,0,1,.84-.63c.06,0,.06,0,.13.07l4.5,11.58c.31.8.5,1.34.55,1.43.22.52,1.32.74,1.5.74a1.08,1.08,0,0,1,0,.63c-.88,0-1.45-.11-2.42-.11s-1.55.06-2.56.11a.64.64,0,0,1,0-.63,3,3,0,0,0,1.24-.28.48.48,0,0,0,.08-.31,30.62,30.62,0,0,0-1.5-4.23.2.2,0,0,0-.13-.08c-.57,0-1.63,0-2.18,0-.91,0-1.39,0-2.38.07a.26.26,0,0,0-.12.06s-.61,1.61-1,2.65A4.85,4.85,0,0,0,3,150.86c0,.52,1.35.61,1.53.61a1.29,1.29,0,0,1,0,.63c-.88,0-1.17-.11-2.14-.11s-1.35.06-2.36.11A1,1,0,0,1,.05,151.47Zm4.7-5.81c.57,0,1.5,0,2,0,.68,0,1.16,0,1.85-.07,0,0,.06-.11.06-.11l-1.94-5.24-2,5.29S4.7,145.66,4.75,145.66Z"/><path class="cls-1" d="M24,151.47c.26,0,1.45-.11,1.52-.35a6.48,6.48,0,0,0,.11-1.6v-9.27a6.48,6.48,0,0,0-.11-1.6c-.07-.24-1.26-.35-1.52-.35a.7.7,0,0,1,0-.63c.9.05,1.74.11,2.6.11l3.2,0c4.83,0,7.74,3,7.74,7,0,3.68-1.81,7.31-8,7.31H24A.7.7,0,0,1,24,151.47Zm3.7-.37c.18.24,1,.3,1.81.3,3.13,0,5.85-1.93,5.85-6.16,0-4.9-3-6.79-6.16-6.79-.26,0-1.45,0-1.52.24a6.66,6.66,0,0,0-.11,1.61v9.24A6.59,6.59,0,0,0,27.66,151.1Z"/><path class="cls-1" d="M48.44,151.47c.26,0,1.45-.11,1.52-.35a6.48,6.48,0,0,0,.11-1.6v-9.27a6.48,6.48,0,0,0-.11-1.6c-.07-.24-1.26-.35-1.52-.35a.7.7,0,0,1,0-.63c.9.05,1.74.11,2.6.11s1.83,0,3.13,0c2,0,4.48,1.28,4.48,3.75,0,1.56-1.52,3.08-3,3.58a53.38,53.38,0,0,0,3.55,5.1,3.05,3.05,0,0,0,2.49,1.3c.11.11,0,.58,0,.63a11,11,0,0,1-2.91-.26,2.76,2.76,0,0,1-1.43-1c-.33-.43-2.12-3-3.51-5.14a.73.73,0,0,0-.66-.26H52v4a6.48,6.48,0,0,0,.11,1.6c.07.24,1.26.35,1.52.35a.7.7,0,0,1,0,.63c-.9,0-1.72-.11-2.58-.11s-1.7.06-2.6.11A.7.7,0,0,1,48.44,151.47Zm4.74-6.66a3.27,3.27,0,0,0,3.42-3.12c0-1.89-1-3.26-3.4-3.26-.26,0-1,0-1.1.22a6.33,6.33,0,0,0-.11,1.63v4.53Z"/><path class="cls-1" d="M71,151.47c.27,0,1.46-.11,1.53-.35a6.48,6.48,0,0,0,.11-1.6v-9.27a6.48,6.48,0,0,0-.11-1.6c-.07-.24-1.26-.35-1.53-.35a.73.73,0,0,1,0-.63c.91.05,1.75.11,2.61.11s1.67-.06,2.58-.11a.7.7,0,0,1,0,.63c-.27,0-1.46.11-1.52.35a6.48,6.48,0,0,0-.11,1.6v9.27a6.48,6.48,0,0,0,.11,1.6c.06.24,1.25.35,1.52.35a.7.7,0,0,1,0,.63c-.91,0-1.72-.11-2.58-.11s-1.7.06-2.61.11A.73.73,0,0,1,71,151.47Z"/><path class="cls-1" d="M85.66,151.47a2.34,2.34,0,0,0,1.33-.41,8,8,0,0,0,1-2l4.26-10.74a1.64,1.64,0,0,1,.84-.63c.07,0,.07,0,.13.07l4.5,11.58c.31.8.51,1.34.55,1.43.22.52,1.33.74,1.5.74a1.09,1.09,0,0,1,0,.63c-.88,0-1.46-.11-2.43-.11s-1.54.06-2.56.11a.64.64,0,0,1,0-.63,3,3,0,0,0,1.24-.28.43.43,0,0,0,.09-.31,30.62,30.62,0,0,0-1.5-4.23s-.07-.08-.13-.08c-.58,0-1.64,0-2.19,0-.9,0-1.39,0-2.38.07,0,0-.11.06-.11.06s-.62,1.61-1,2.65a4.57,4.57,0,0,0-.31,1.54c0,.52,1.34.61,1.52.61a1.09,1.09,0,0,1,0,.63c-.88,0-1.16-.11-2.14-.11s-1.34.06-2.36.11A1.12,1.12,0,0,1,85.66,151.47Zm4.7-5.81c.58,0,1.5,0,2,0,.68,0,1.17,0,1.85-.07,0,0,.07-.11.07-.11l-1.94-5.24-2,5.29S90.32,145.66,90.36,145.66Z"/><path class="cls-1" d="M109.48,151.47c.27,0,1.57-.17,1.72-.43a2.68,2.68,0,0,0,.22-1.48v-9.41a2.66,2.66,0,0,0-.22-1.48c-.15-.26-1.45-.43-1.72-.43a.79.79,0,0,1,0-.63c1,0,1.53.11,2.25.11s1.37,0,1.68-.05c1.13,1.74,6.2,7.4,8.65,10.76v-8.22a2.69,2.69,0,0,0-.22-1.5,4,4,0,0,0-1.68-.43.87.87,0,0,1,0-.63c.88,0,1.56.11,2.53.11s1.35-.07,2.36-.11a.75.75,0,0,1,0,.63c-.26,0-1.56.17-1.72.43a2.66,2.66,0,0,0-.22,1.48V149c0,1.26,0,1.86.05,3,0,.11-.23.13-.29.13a1.21,1.21,0,0,1-.77-.5l-9.62-11.95v9.85a2.69,2.69,0,0,0,.22,1.5,3.78,3.78,0,0,0,1.65.43.93.93,0,0,1,0,.63c-.88,0-1.55-.11-2.52-.11s-1.34.06-2.36.11A.79.79,0,0,1,109.48,151.47Z"/><path class="cls-1" d="M134.25,151.47a2.31,2.31,0,0,0,1.32-.41,8,8,0,0,0,1-2s2.91-7.36,4.26-10.74a1.64,1.64,0,0,1,.84-.63c.06,0,.06,0,.13.07l4.5,11.58c.31.8.51,1.34.55,1.43.22.52,1.32.74,1.5.74a1,1,0,0,1,0,.63c-.88,0-1.45-.11-2.42-.11s-1.55.06-2.56.11a.64.64,0,0,1,0-.63,3,3,0,0,0,1.24-.28.48.48,0,0,0,.08-.31,30.62,30.62,0,0,0-1.5-4.23.2.2,0,0,0-.13-.08c-.57,0-1.63,0-2.18,0-.91,0-1.39,0-2.38.07a.21.21,0,0,0-.11.06s-.62,1.61-1,2.65a4.85,4.85,0,0,0-.31,1.54c0,.52,1.35.61,1.53.61a1.29,1.29,0,0,1,0,.63c-.88,0-1.17-.11-2.14-.11s-1.34.06-2.36.11A1,1,0,0,1,134.25,151.47Zm4.7-5.81c.57,0,1.5,0,2,0,.68,0,1.17,0,1.85-.07,0,0,.07-.11.07-.11l-1.95-5.24-2,5.29S138.9,145.66,139,145.66Z"/><path class="cls-1" d="M179.22,137.56a7.17,7.17,0,0,1,7.19,7.36,7.32,7.32,0,0,1-7.19,7.33,7.13,7.13,0,0,1-7.15-7.33A7.31,7.31,0,0,1,179.22,137.56Zm.35,13.95c3.31,0,4.66-3.25,4.66-6.18,0-3.36-1.92-7-5.34-7s-4.63,3.23-4.63,6.14C174.26,147.8,176.15,151.51,179.57,151.51Z"/><path class="cls-1" d="M196.18,137.67c1,.05,1.54.11,2.56.11s1.85-.06,2.73-.11c.05.13.05.61,0,.63s-1.33.11-1.33.72a6,6,0,0,0,.38,1.47c.73,1.95,3.22,8.57,3.29,8.74.13-.28,2.2-5.2,3.53-8.54a5.24,5.24,0,0,0,.39-1.52c0-.7-1.19-.85-1.45-.85s-.11-.52,0-.63c.81.05,1.47.09,2.29.09,1,0,1.28-.06,2.16-.11a1,1,0,0,1,0,.63,2.29,2.29,0,0,0-1.41.57,10.58,10.58,0,0,0-1.11,2.19c-1.61,4-2.55,6.24-4.28,10.28-.24.58-.55.74-.83.74-.09,0-.18-.26-.22-.35-1.5-3.86-2.54-6.68-4.2-10.85a10.63,10.63,0,0,0-1-2.08c-.24-.35-1.15-.5-1.41-.5A1.34,1.34,0,0,1,196.18,137.67Z"/><path class="cls-1" d="M218.94,151.47a2.33,2.33,0,0,0,1.32-.41,8.3,8.3,0,0,0,1-2s2.91-7.36,4.26-10.74a1.66,1.66,0,0,1,.83-.63c.07,0,.07,0,.14.07L231,149.3c.31.8.5,1.34.55,1.43.22.52,1.32.74,1.5.74a1.08,1.08,0,0,1,0,.63c-.88,0-1.45-.11-2.42-.11s-1.55.06-2.56.11a.64.64,0,0,1,0-.63,3,3,0,0,0,1.23-.28.43.43,0,0,0,.09-.31,30.62,30.62,0,0,0-1.5-4.23.2.2,0,0,0-.13-.08c-.57,0-1.63,0-2.18,0-.91,0-1.39,0-2.39.07,0,0-.11.06-.11.06s-.61,1.61-1,2.65a4.85,4.85,0,0,0-.31,1.54c0,.52,1.35.61,1.52.61a1.17,1.17,0,0,1,.05.63c-.88,0-1.17-.11-2.14-.11s-1.35.06-2.36.11A1,1,0,0,1,218.94,151.47Zm4.7-5.81,2,0c.69,0,1.17,0,1.86-.07,0,0,.06-.11.06-.11l-1.94-5.24-2,5.29S223.59,145.66,223.64,145.66Z"/><path class="cls-1" d="M242.85,151.47c.26,0,1.45-.11,1.52-.35a6.48,6.48,0,0,0,.11-1.6v-9.27a6.48,6.48,0,0,0-.11-1.6c-.07-.24-1.26-.35-1.52-.35a.7.7,0,0,1,0-.63c.9.05,1.74.11,2.6.11s1.83,0,3.13,0c2,0,4.48,1.28,4.48,3.75,0,1.56-1.52,3.08-3,3.58a51.63,51.63,0,0,0,3.55,5.1,3.05,3.05,0,0,0,2.49,1.3c.11.11,0,.58,0,.63a11,11,0,0,1-2.91-.26,2.72,2.72,0,0,1-1.43-1c-.34-.43-2.12-3-3.51-5.14a.74.74,0,0,0-.66-.26H246.4v4a6.48,6.48,0,0,0,.11,1.6c.06.24,1.25.35,1.52.35a.7.7,0,0,1,0,.63c-.91,0-1.72-.11-2.58-.11s-1.7.06-2.6.11A.7.7,0,0,1,242.85,151.47Zm4.74-6.66a3.27,3.27,0,0,0,3.42-3.12c0-1.89-.95-3.26-3.4-3.26-.26,0-1,0-1.1.22a6.33,6.33,0,0,0-.11,1.63v4.53Z"/><path class="cls-1" d="M265.36,151.47c.27,0,1.46-.11,1.52-.35a6,6,0,0,0,.12-1.6v-9.27a6,6,0,0,0-.12-1.6c-.06-.24-1.25-.35-1.52-.35a.7.7,0,0,1,0-.63c.91.05,1.75.11,2.61.11,2.07,0,4.69-.15,7.1-.15.15,1.08.44,2,.64,3a.71.71,0,0,1-.4.11c-.15,0-.29-.05-.31-.15a2.31,2.31,0,0,0-2.56-2h-1.89c-.27,0-1.46,0-1.53.24a6.17,6.17,0,0,0-.11,1.54v4.05c0,.11.47.13.95.13H271c2.12,0,2.05-.13,2.43-1.56,0-.11.17-.15.33-.15a.54.54,0,0,1,.37.11V147a.63.63,0,0,1-.35.08c-.15,0-.31-.06-.35-.17-.33-1.24-.42-1.3-.62-1.43a9.1,9.1,0,0,0-2.34-.18c-.62,0-1.59,0-1.59.2v4.12a4.71,4.71,0,0,0,.14,1.5c.28.22.64.22,1.56.22h1.06a6,6,0,0,0,2.78-.59,3.94,3.94,0,0,0,1.39-2.19c0-.09.15-.13.31-.13a1,1,0,0,1,.55.13,25.12,25.12,0,0,0-1.19,3.6c-2.4,0-4.59-.09-7.52-.09-1,0-1.77.07-2.63.07A.7.7,0,0,1,265.36,151.47Z"/><path class="cls-1" d="M287.79,148a.21.21,0,0,1,.24.19c.18.83,1,3.32,3.67,3.32a2.52,2.52,0,0,0,2.64-2.64c0-1.5-.79-2-2.93-3.13-1.68-.91-3.84-2.17-3.84-4.34s2.12-3.81,4.32-3.81a12.88,12.88,0,0,1,3.34.6c.17,1.13.26,2.5.3,3.08,0,.15-.3.24-.46.24a.33.33,0,0,1-.24-.09c-.13-1.08-1.21-3.1-3.09-3.1a2.27,2.27,0,0,0-2.4,2.41c0,1.56,1.32,2.34,2.91,3.26,1.85,1.06,4,2.29,4,4.29,0,2.39-2.25,4-4.61,4a19,19,0,0,1-4-.63,30.46,30.46,0,0,1-.46-3.36A.92.92,0,0,1,287.79,148Z"/><path class="cls-1" d="M98.26,168a2.75,2.75,0,0,0-.59-1.38,3.08,3.08,0,0,0-2.45-1c-1.72,0-2.91.91-2.91,2.26a1.94,1.94,0,0,0,1.44,1.87,11.21,11.21,0,0,0,2.38.6c2.66.57,3.72,1.58,3.72,3.51,0,2.34-1.61,3.67-4.47,3.67a4.73,4.73,0,0,1-4-1.58,4.25,4.25,0,0,1-.78-2.19l1.44-.18a2.59,2.59,0,0,0,.52,1.64,3.35,3.35,0,0,0,2.77,1.15c2,0,3.17-.93,3.17-2.48a1.91,1.91,0,0,0-1-1.78,8.41,8.41,0,0,0-2.74-.81,7.75,7.75,0,0,1-2.26-.76A2.85,2.85,0,0,1,91,168c0-2.09,1.67-3.44,4.25-3.44a4.38,4.38,0,0,1,3.67,1.53,3.82,3.82,0,0,1,.73,1.76Z"/><path class="cls-1" d="M104.52,166a11.25,11.25,0,0,0-.12,1.85v.63h.8a10.51,10.51,0,0,0,1.69-.1v1.26a10.21,10.21,0,0,0-1.69-.1h-.8v5.78c0,.49.07.73.22.88a1.08,1.08,0,0,0,.81.29,2.26,2.26,0,0,0,1.31-.44l.37,1.17a4.52,4.52,0,0,1-1.88.38,2.3,2.3,0,0,1-1.63-.51,2.14,2.14,0,0,1-.46-1.6v-5.95h-.67a12.29,12.29,0,0,0-1.49.1v-1.26a7.73,7.73,0,0,0,1.49.1h.67v-.63A13.07,13.07,0,0,0,103,166Z"/><path class="cls-1" d="M115,176.3a5.08,5.08,0,0,1,0-.73,3.64,3.64,0,0,1-3.36,2,3,3,0,0,1-2.66-1.23,3.62,3.62,0,0,1-.46-1.93v-4.1a12.25,12.25,0,0,0-.12-1.86H110a13.31,13.31,0,0,0-.11,1.88v3.87c0,1.48.71,2.31,2,2.31a2.85,2.85,0,0,0,2.39-1.32,3.88,3.88,0,0,0,.77-1.66v-3.2a13.31,13.31,0,0,0-.12-1.88h1.48a11.56,11.56,0,0,0-.12,1.88v5.2a11.13,11.13,0,0,0,.13,1.87H115Z"/><path class="cls-1" d="M125.78,176.57c0-.23,0-.53,0-.81a3.7,3.7,0,0,1-3.37,1.79c-2.56,0-4.12-1.76-4.12-4.65s1.59-4.65,4.08-4.65a3.81,3.81,0,0,1,3.41,1.76l0-.25a5,5,0,0,1,0-.88v-2.23a13.46,13.46,0,0,0-.11-1.89h1.46a12.47,12.47,0,0,0-.12,1.88v8.83a12,12,0,0,0,.12,1.91h-1.33Zm-6.13-3.71a4.38,4.38,0,0,0,.68,2.6,2.77,2.77,0,0,0,2.23,1c1.94,0,3.19-1.41,3.19-3.6a3.7,3.7,0,0,0-.93-2.64,3.2,3.2,0,0,0-2.26-.88C120.74,169.33,119.65,170.66,119.65,172.86Z"/><path class="cls-1" d="M131.08,164.76v1.48h-1.61v-1.48Zm-.07,3.67a12.25,12.25,0,0,0-.12,1.88v5.2a13.36,13.36,0,0,0,.12,1.87h-1.49a14.88,14.88,0,0,0,.11-1.87v-5.2a12.67,12.67,0,0,0-.11-1.88Z"/><path class="cls-1" d="M133,172.91c0-2.87,1.73-4.7,4.44-4.7s4.41,1.83,4.41,4.69-1.72,4.7-4.4,4.7S133,175.79,133,172.91Zm1.28,0c0,2.26,1.21,3.64,3.16,3.64s3.14-1.38,3.14-3.62-1.2-3.64-3.11-3.64S134.3,170.64,134.3,172.88Z"/><path class="cls-1" d="M159,177.38a13.38,13.38,0,0,0-1.05-1.26l-.38-.4a5.8,5.8,0,0,1-2,1.43,6.52,6.52,0,0,1-2.51.48,4.19,4.19,0,0,1-3.12-1.08,3.33,3.33,0,0,1-1-2.42,3.52,3.52,0,0,1,1.1-2.61,6.31,6.31,0,0,1,2.14-1.35l-.56-.59a3.13,3.13,0,0,1-1.1-2.35,2.36,2.36,0,0,1,.43-1.39,3.29,3.29,0,0,1,2.93-1.32c2,0,3.35,1.07,3.35,2.61a2.74,2.74,0,0,1-1,2.21,7.16,7.16,0,0,1-2.18,1.18L157.6,174a8.41,8.41,0,0,0,1.53-3.69l1.17.45a11.19,11.19,0,0,1-1.9,4l1.08,1.1c.55.54,1.12,1.08,1.58,1.47ZM153,171a5.73,5.73,0,0,0-1.92,1.15,2.51,2.51,0,0,0-.84,1.89c0,1.52,1.13,2.48,2.91,2.48a4.9,4.9,0,0,0,2.06-.45,5.19,5.19,0,0,0,1.58-1.15Zm.34-1.29a9.24,9.24,0,0,0,1.72-.8,1.87,1.87,0,0,0,1-1.63c0-1.06-.8-1.71-2.1-1.71s-2.11.67-2.11,1.75a2.17,2.17,0,0,0,.78,1.64Z"/><path class="cls-1" d="M168.22,177.38a10.22,10.22,0,0,0,.13-1.86V166.6a12.18,12.18,0,0,0-.13-1.89c.6,0,1.06,0,1.82,0h3.39c2.56,0,4,1.31,4,3.62s-1.5,3.85-4.09,3.85h-3.7v3.28a10.06,10.06,0,0,0,.13,1.87Zm5.13-6.29a2.45,2.45,0,0,0,2.76-2.64c0-1.67-1-2.55-2.76-2.55h-3.7v5.19Z"/><path class="cls-1" d="M179.11,177.38a11.05,11.05,0,0,0,.12-1.87v-8.87a11.25,11.25,0,0,0-.12-1.88h1.48a10.23,10.23,0,0,0-.13,1.89v2.81a5.67,5.67,0,0,1-.05.83,3.67,3.67,0,0,1,.91-1.13,3.61,3.61,0,0,1,2.5-.9,2.84,2.84,0,0,1,3.1,3.09v4.17a12.81,12.81,0,0,0,.12,1.86h-1.5a10.68,10.68,0,0,0,.12-1.87v-3.92c0-1.45-.71-2.23-2-2.23a2.87,2.87,0,0,0-2.34,1.21,3.83,3.83,0,0,0-.83,1.75v3.19a13.74,13.74,0,0,0,.11,1.87Z"/><path class="cls-1" d="M189,172.91c0-2.87,1.73-4.7,4.43-4.7s4.42,1.83,4.42,4.69-1.73,4.7-4.4,4.7S189,175.79,189,172.91Zm1.28,0c0,2.26,1.21,3.64,3.15,3.64s3.14-1.38,3.14-3.62-1.19-3.64-3.1-3.64S190.23,170.64,190.23,172.88Z"/><path class="cls-1" d="M202.29,166a11.25,11.25,0,0,0-.12,1.85v.63h.8a10.51,10.51,0,0,0,1.69-.1v1.26a10.21,10.21,0,0,0-1.69-.1h-.8v5.78c0,.49.07.73.22.88a1.08,1.08,0,0,0,.81.29,2.26,2.26,0,0,0,1.31-.44l.37,1.17a4.52,4.52,0,0,1-1.88.38,2.29,2.29,0,0,1-1.63-.51,2.14,2.14,0,0,1-.46-1.6v-5.95h-.67a12.29,12.29,0,0,0-1.49.1v-1.26a7.66,7.66,0,0,0,1.49.1h.67v-.63a13.07,13.07,0,0,0-.12-1.85Z"/><path class="cls-1" d="M205.84,172.91c0-2.87,1.73-4.7,4.44-4.7s4.42,1.83,4.42,4.69-1.73,4.7-4.41,4.7S205.84,175.79,205.84,172.91Zm1.28,0c0,2.26,1.21,3.64,3.16,3.64s3.14-1.38,3.14-3.62-1.2-3.64-3.11-3.64S207.12,170.64,207.12,172.88Z"/><path class="cls-2" d="M214.36,77.58c0,1.43-2.62,2.06-4,2.07s-1.47-.51-1.47-.83a41.63,41.63,0,0,0-.27-4.68A40.2,40.2,0,0,0,190.23,45a38.64,38.64,0,0,0-16.75-5.71,35.85,35.85,0,0,0-8.81.21,30.6,30.6,0,0,0-3.43.69l1.12,2.94c.93,2.42,1.85,4.84,2.78,7.25s1.8,4.73,2.7,7.08l2.56,6.72q1.18,3.08,2.36,6.17l2.09,5.46,1.74,4.56c.44,1.16.88,2.32,1.33,3.48.28.75.57,1.5.85,2.24.1.26.21.53.31.8,2.31,6.09,3.79,10.21,4.11,10.87,1.65,4,9.89,5.6,11.2,5.6.83,1.15.5,4.28.33,4.78-6.58-.34-10.86-.83-18.11-.83-7.58,0-11.53.49-19.1.83-.83-.83-.66-4,.16-4.78,2,0,7.74-.82,9.22-2.14a3.21,3.21,0,0,0,.66-2.31c0-2.4-8.64-29.93-16.44-54.28a39.63,39.63,0,0,0,18.17,72.57c1.18.09,2.8-.18,3.9.26a.94.94,0,0,1,.63.8,1.17,1.17,0,0,1-.45.8c-2,1.87-5.91,1.13-8.37.86a41.83,41.83,0,0,1-7.27-1.47,42.48,42.48,0,0,1-13.7-7,41,41,0,0,1-15.46-40.3h-6.47c-2.82,7.56-5.14,13.78-6,16.13a35.63,35.63,0,0,0-2.28,11.52c0,3.51,8,4.39,10.58,4.53.35.29.58.49.92.79a13,13,0,0,1,.18,3,1,1,0,0,1-1.06.92c-5.8-.31-8-.76-14.84-.76-7.2,0-9.72.45-16.61.78a1,1,0,0,1-1-.87,11,11,0,0,1,.08-3,1,1,0,0,1,.9-.81c2.43-.18,7.59-1.16,9-3.06,3.25-4.22,5.36-9.42,7.63-15.26,0,0,13.88-35.64,24.48-62.8a1,1,0,0,1,1.88,0c.71,2.06,1.36,4.13,1.9,6.29a1,1,0,0,1,0,.6c-1,2.61-8.37,22.23-14.33,38.17h5.92a40.83,40.83,0,0,1,1.63-4.66,43.31,43.31,0,0,1,19.14-20.79c-6-18.84-11.35-35.08-11.37-35.12a.63.63,0,0,1,.05-.6A55.93,55.93,0,0,1,143,.44a2.09,2.09,0,0,1,3,.47c1.33,3.2,12.65,32.58,13.56,34.94.24.65.49,1.3.74,1.95a43.83,43.83,0,0,1,37.3,6.66A41.61,41.61,0,0,1,214.36,77.58Z"/></g></g></svg>