<svg xmlns="http://www.w3.org/2000/svg" viewBox="0 0 153.08 150.36"><defs><style>.cls-1{fill:#5e748d;}</style></defs><title>logo-web</title><g id="Layer_2" data-name="Layer 2"><g id="Layer_1-2" data-name="Layer 1"><path class="cls-1" d="M153.08,97c0,1.78-3.28,2.57-5,2.58s-1.84-.64-1.84-1a52.59,52.59,0,0,0-.34-5.85,50.23,50.23,0,0,0-23-36.44A48.29,48.29,0,0,0,102,49.1a45.28,45.28,0,0,0-11,.26,38.3,38.3,0,0,0-4.29.87c.46,1.22.93,2.45,1.4,3.67q1.74,4.53,3.47,9.07t3.38,8.85q1.59,4.19,3.2,8.39c1,2.57,2,5.14,3,7.72l2.61,6.82,2.17,5.7,1.67,4.35c.35.94.71,1.87,1.06,2.8l.39,1c2.88,7.62,4.73,12.76,5.14,13.59,2.06,4.94,12.36,7,14,7,1,1.44.62,5.35.41,6-8.23-.42-13.58-1-22.64-1-9.47,0-14.41.61-23.88,1-1-1-.82-4.94.21-6,2.47,0,9.67-1,11.52-2.68a4,4,0,0,0,.83-2.88c0-3-10.8-37.42-20.55-67.85a49.53,49.53,0,0,0,22.71,90.71c1.47.11,3.5-.23,4.87.32a1.17,1.17,0,0,1,.79,1,1.48,1.48,0,0,1-.56,1c-2.53,2.33-7.39,1.41-10.47,1.07a52,52,0,0,1-9.08-1.84,52.87,52.87,0,0,1-17.13-8.72A51.32,51.32,0,0,1,45.83,89H37.74c-3.53,9.45-6.42,17.23-7.45,20.16-2.44,7.1-2.85,11.77-2.85,14.41,0,4.38,10.05,5.48,13.23,5.65l1.14,1a15.91,15.91,0,0,1,.23,3.7A1.26,1.26,0,0,1,40.71,135c-7.25-.4-10-1-18.54-1-9,0-12.16.56-20.77,1A1.26,1.26,0,0,1,.09,134a13.77,13.77,0,0,1,.1-3.78,1.22,1.22,0,0,1,1.13-1c3-.22,9.48-1.44,11.31-3.82,4.06-5.27,6.7-11.77,9.54-19.07,0,0,17.34-44.55,30.6-78.51a1.25,1.25,0,0,1,2.34,0c.89,2.58,1.71,5.17,2.38,7.86a1.28,1.28,0,0,1,0,.75C56.22,39.67,47,64.2,39.54,84.13h7.4a50.32,50.32,0,0,1,2-5.83,54.05,54.05,0,0,1,23.92-26C65.35,28.77,58.72,8.47,58.69,8.41a.79.79,0,0,1,.06-.75A69.86,69.86,0,0,1,63.92.55c.79-1,3.26-.58,3.75.59,1.66,4,15.81,40.72,16.94,43.68l.93,2.43c16.28-4.37,33.65-1.28,46.62,8.33A52,52,0,0,1,153.08,97Z"/></g></g></svg>