<svg xmlns="http://www.w3.org/2000/svg" viewBox="0 0 28.07 28.2"><defs><style>.cls-1{fill:#5e758d;}</style></defs><title>whatsapp</title><g id="Layer_2" data-name="Layer 2"><g id="diseño"><path class="cls-1" d="M7.41,26.26A14,14,0,0,0,14.09,28h0A14,14,0,1,0,2,21L0,28.2ZM14.1,2.36A11.63,11.63,0,0,1,25.71,14,11.64,11.64,0,0,1,14.09,25.6h0A11.54,11.54,0,0,1,8.18,24l-.43-.25L3.36,24.88,4.53,20.6l-.28-.44A11.63,11.63,0,0,1,14.1,2.36Z"/><path class="cls-1" d="M14.38,19.76c.84.35,1.49.57,2,.73a4.74,4.74,0,0,0,2.2.14A3.62,3.62,0,0,0,20.93,19a2.89,2.89,0,0,0,.2-1.66c-.08-.15-.32-.23-.67-.41s-2.06-1-2.38-1.14-.56-.17-.79.18-.9,1.14-1.1,1.37-.41.26-.76.09a9.82,9.82,0,0,1-2.81-1.74,10.2,10.2,0,0,1-1.94-2.42.51.51,0,0,1,.15-.71c.16-.16.35-.41.53-.61a2.63,2.63,0,0,0,.35-.58.7.7,0,0,0,0-.62c-.09-.17-.79-1.89-1.08-2.59s-.57-.59-.79-.6H9.14A1.29,1.29,0,0,0,8.21,8,3.91,3.91,0,0,0,7,10.87a6.72,6.72,0,0,0,1.43,3.61A15.52,15.52,0,0,0,14.38,19.76Z"/></g></g></svg>